<svg xmlns="http://www.w3.org/2000/svg" viewBox="0 0 128 128" width="128" height="128">
  <rect width="128" height="128" rx="24" fill="#0B0B0F"/>
  <path d="M46 32 C 38 32, 34 36, 34 44 L 34 58 C 34 62, 30 64, 26 64 C 30 64, 34 66, 34 70 L 34 84 C 34 92, 38 96, 46 96" fill="none" stroke="#59E8B5" stroke-width="6" stroke-linecap="round" stroke-linejoin="round"/>
  <path d="M82 32 C 90 32, 94 36, 94 44 L 94 58 C 94 62, 98 64, 102 64 C 98 64, 94 66, 94 70 L 94 84 C 94 92, 90 96, 82 96" fill="none" stroke="#59E8B5" stroke-width="6" stroke-linecap="round" stroke-linejoin="round"/>
  <rect x="44" y="61" width="40" height="6" rx="1" fill="#FF6A3D"/>
</svg>
